<svg width="45" height="44" viewBox="0 0 45 44" version="1.1" xmlns="http://www.w3.org/2000/svg" xmlns:xlink="http://www.w3.org/1999/xlink">
<title>Frame</title>
<desc>Created using Figma</desc>
<g id="Canvas" transform="translate(-217 -89)">
<clipPath id="clip-0" clip-rule="evenodd">
<path d="M 217 89L 262 89L 262 133L 217 133L 217 89Z" fill="#FFFFFF"/>
</clipPath>
<g id="Frame" clip-path="url(#clip-0)">
<g id="beers">
<g id="g10">
<g id="g12">
<g id="g14">
<g id="g20">
<g id="path22">
<use xlink:href="#path0_fill" transform="matrix(1.25 0 0 -1.25 219.5 125.25)" fill="#FFCC4D"/>
</g>
</g>
</g>
</g>
<g id="g24">
<g id="g26">
<g id="g32">
<g id="path34">
<use xlink:href="#path1_fill" transform="matrix(1.25 0 0 -1.25 217 103.575)" fill="#FFAC33"/>
</g>
</g>
</g>
</g>
<g id="g36">
<g id="g38">
<g id="g44">
<g id="path46">
<use xlink:href="#path2_fill" transform="matrix(1.25 0 0 -1.25 229.5 121.5)" fill="#FFAC33"/>
</g>
</g>
<g id="g48">
<g id="path50">
<use xlink:href="#path2_fill" transform="matrix(1.25 0 0 -1.25 223.25 121.5)" fill="#FFAC33"/>
</g>
</g>
<g id="g52">
<g id="path54">
<use xlink:href="#path3_fill" transform="matrix(1.25 0 0 -1.25 217 101.67)" fill="#CCD6DD"/>
</g>
</g>
<g id="g56">
<g id="path58">
<use xlink:href="#path4_fill" transform="matrix(1.25 0 0 -1.25 247 126.5)" fill="#FFAC33"/>
</g>
</g>
<g id="g60">
<g id="path62">
<use xlink:href="#path5_fill" transform="matrix(1.25 0 0 -1.25 233 133)" fill="#FFCC4D"/>
</g>
</g>
</g>
</g>
<g id="g64">
<g id="g66">
<g id="g72">
<g id="path74">
<use xlink:href="#path1_fill" transform="matrix(1.25 0 0 -1.25 230.75 111.075)" fill="#FFAC33"/>
</g>
</g>
</g>
</g>
<g id="g76">
<g id="g78">
<g id="g84">
<g id="path86">
<use xlink:href="#path3_fill" transform="matrix(1.25 0 0 -1.25 230.75 109.17)" fill="#E1E8ED"/>
</g>
</g>
<g id="g88">
<g id="path90">
<use xlink:href="#path6_fill" transform="matrix(1.25 0 0 -1.25 235.75 129)" fill="#FFAC33"/>
</g>
</g>
<g id="g92">
<g id="path94">
<use xlink:href="#path7_fill" transform="matrix(1.25 0 0 -1.25 248.25 129)" fill="#FFAC33"/>
</g>
</g>
<g id="g96">
<g id="path98">
<use xlink:href="#path7_fill" transform="matrix(1.25 0 0 -1.25 242 129)" fill="#FFAC33"/>
</g>
</g>
<g id="g100">
<g id="path102">
<use xlink:href="#path8_fill" transform="matrix(1.25 0 0 -1.25 243.25 95.2503)" fill="#F4900C"/>
</g>
</g>
<g id="g104">
<g id="path106">
<use xlink:href="#path9_fill" transform="matrix(1.25 0 0 -1.25 247 96.5003)" fill="#F4900C"/>
</g>
</g>
</g>
</g>
</g>
</g>
</g>
</g>
<defs>
<path id="path0_fill" d="M 17 1.522C 17 0.681 16.318 4.48227e-08 15.478 4.48227e-08L 2 4.48227e-08C 1 4.48227e-08 0 0.681 0 1.855L 0 24.81C 0 25.318 0.682 26 1.522 26L 15.478 26C 16.318 26 17 25.318 17 24.477L 17 1.522Z"/>
<path id="path1_fill" d="M 17.512 6.091C 16.491 6.091 15.637 5.418 15.344 4.494C 15.186 4.538 15.02 4.569 14.847 4.569C 14.401 4.569 13.994 4.408 13.67 4.151C 13.497 5.669 12.224 6.853 10.659 6.853C 9.157 6.853 7.914 5.761 7.666 4.329C 7.43 4.479 7.153 4.569 6.852 4.569C 6.473 4.569 6.13 4.424 5.863 4.195C 5.409 5.306 4.321 6.091 3.046 6.091C 1.364 6.091 8.69751e-07 9.898 8.69751e-07 3.046C 8.69751e-07 1.364 1.364 -8.01086e-08 3.046 -8.01086e-08C 4.321 -8.01086e-08 5.409 0.785 5.863 1.897C 6.13 1.667 6.473 1.523 6.852 1.523C 7.367 1.523 7.822 1.78 8.097 2.173C 8.638 1.326 9.58 0.761 10.659 0.761C 11.65 0.761 12.522 1.242 13.077 1.974C 13.355 1.266 14.04 0.761 14.847 0.761C 15.57 0.761 16.19 1.169 16.513 1.762C 16.816 1.613 17.152 1.523 17.512 1.523C 18.774 1.523 19.796 2.546 19.796 3.807C 19.796 7.614 18.774 6.091 17.512 6.091Z"/>
<path id="path2_fill" d="M 1 0C 0.448 0 0 0.447 0 1L 0 12C 0 12.552 0.448 13 1 13C 1.552 13 2 12.552 2 12L 2 1C 2 0.447 1.552 0 1 0Z"/>
<path id="path3_fill" d="M 20 6.136C 20 8.136 19 9.136 17 9.136L 3 9.136C 1 9.136 0 8.136 0 6.136L 0 4.568C 0 4.495 0.0119999 4.425 0.0209999 4.355C 0.00799991 3.968 0 3.537 0 3.045C 0 1.363 1.364 -1.56403e-07 3.045 -1.56403e-07C 4.32 -1.56403e-07 5.409 0.785 5.863 1.896C 6.129 1.666 6.473 1.522 6.852 1.522C 7.367 1.522 7.821 1.78 8.097 2.172C 8.638 1.326 9.58 0.761 10.659 0.761C 11.649 0.761 12.521 1.241 13.077 1.974C 13.354 1.265 14.04 0.761 14.847 0.761C 15.569 0.761 16.189 1.168 16.513 1.761C 16.815 1.613 17.151 1.522 17.512 1.522C 18.773 1.522 20 2.875 20 4.136C 20 4.371 20.01 3.94 20 4.136C 20.004 4.175 20 4.528 20 4.568L 20 6.136Z"/>
<path id="path4_fill" d="M 3 15L 3 3L 7.557 3C 7.557 3 9 3.204 9 4.727L 9 13C 9 14 9 15 7 15L 3 15ZM 12 3.045C 12 1.363 10.637 0 8.954 0L 3.046 0C 1.363 0 0 1.363 0 3.045L 0 14.955C 0 16.637 1.363 18 3.046 18L 8.954 18C 10.637 18 12 16.637 12 14.955L 12 3.045Z"/>
<path id="path5_fill" d="M 17.6 2.03077C 17.6 1.01538 16.5647 0 15.5294 0L 2.07059 0C 1.03529 0 0 1.01538 0 2.03077L 0 24.8546C 0 25.7075 0.706071 26.4 1.57572 26.4L 16.0243 26.4C 16.8939 26.4 17.6 25.7075 17.6 24.8546L 17.6 2.03077Z"/>
<path id="path6_fill" d="M 1 0C 0.448 0 0 0.447 0 1L 0 12C 0 12.553 0.448 13 1 13C 1.552 13 2 12.553 2 12L 2 1C 2 0.447 1.552 0 1 0Z"/>
<path id="path7_fill" d="M 1 0C 0.447 0 0 0.447 0 1L 0 12C 0 12.553 0.447 13 1 13C 1.553 13 2 12.553 2 12L 2 1C 2 0.447 1.553 0 1 0Z"/>
<path id="path8_fill" d="M 1 0C 0.447 0 0 0.448 0 1L 0 4C 0 4.552 0.447 5 1 5C 1.553 5 2 4.552 2 4L 2 1C 2 0.448 1.553 0 1 0Z"/>
<path id="path9_fill" d="M 1.00025 0C 0.74425 0 0.48825 0.098 0.29325 0.293C -0.09775 0.684 -0.09775 1.316 0.29325 1.707L 4.29325 5.707C 4.68425 6.098 5.31625 6.098 5.70725 5.707C 6.09825 5.316 6.09825 4.684 5.70725 4.293L 1.70725 0.293C 1.51225 0.098 1.25625 0 1.00025 0Z"/>
</defs>
</svg>
